<?xml version="1.0" encoding="UTF-8"?>
<svg width="300px" height="205px" viewBox="0 0 300 205" version="1.1" xmlns="http://www.w3.org/2000/svg" xmlns:xlink="http://www.w3.org/1999/xlink">
    <!-- Generator: Sketch 50.2 (55047) - http://www.bohemiancoding.com/sketch -->
    <title>Group</title>
    <desc>Created with Sketch.</desc>
    <defs></defs>
    <g id="2" stroke="none" stroke-width="1" fill="none" fill-rule="evenodd">
        <g id="Artboard-2" transform="translate(-50.000000, -98.000000)">
            <g id="Group" transform="translate(50.000000, 98.000000)">
                <path d="M300,150.239723 C300,166.889027 270.995734,166.810483 277.153218,183.434016 C279.21569,188.998777 231.18767,201.935753 203.44515,194.317391 C175.702629,186.699028 161.033903,197.249124 138.168631,201.391584 C69.0843155,213.907465 82.4116047,189.691956 64.4605621,169.557713 C50.873443,154.318133 41.9101122,157.486717 21.7588395,145.342204 C8.15414558,137.140645 19.021347,124.254856 15.5031732,107.522477 C11.9849993,90.7900986 0,90.7900986 0,63.7168939 C2.42802598e-15,36.6436893 35.5655785,-1.55905049 47.325476,0.0491517879 C59.0853734,1.65735406 55.2365796,20.0192556 64.4605621,27.8017573 C75.9891798,37.5298845 89.1758635,45.0899056 103.540516,48.7485756 C129.19311,55.2822785 158.295558,38.4130477 187.669991,52.5614348 C217.044424,66.709822 219.044368,84.6722732 229.201632,89.5649089 C235.821676,92.7541019 300,92.7541019 300,150.239723 Z" id="Shape-Copy" fill="#545794" fill-rule="nonzero" opacity="0.1"></path>
                <ellipse id="Oval-Copy" fill="#545794" fill-rule="nonzero" cx="142.241379" cy="140.689655" rx="126.724138" ry="46.5517241"></ellipse>
                <g id="边框-copy" transform="translate(82.758621, 62.068966)" fill="#FFFFFF" opacity="0.253683036">
                    <path d="M13.7892513,53.6136782 C13.7807115,53.5502307 13.7752998,53.4864409 13.7730606,53.4223204 C13.6493339,49.8792492 23.2592631,46.6679338 35.2374382,46.2496467 C47.2156134,45.8313596 57.7622397,48.7089453 57.8859665,52.2520165 C57.8893867,52.3499603 57.8848063,52.4473873 57.8724117,52.5442602 C58.8481928,58.2308096 59.2727019,84.7285419 57.5999403,94.0583573 C56.2495393,97.3451156 48.1576303,100.911241 36.8965043,101.304488 C25.6353783,101.697735 16.7294288,99.0176541 16.605644,95.4729194 C16.5770079,94.6528887 16.3254404,92.5919503 15.9822529,89.5594679 C15.6258227,89.3285083 15.3142193,89.0279545 15.068334,88.6710011 L11.2205551,83.0851485 C10.6788515,82.2987535 10.000731,81.6156941 9.21828762,81.068298 C8.32285927,80.4418578 7.57477966,79.9759565 6.97404879,79.6705941 C6.60619618,79.483608 5.98765563,79.201304 5.11842714,78.8236821 C2.20596227,77.5584102 0.317543001,74.6903431 0.306132411,71.5149322 L0.28269157,64.9916676 C0.277649191,63.5884425 0.721567151,62.2883779 1.47935196,61.2275415 C1.9872756,58.5532376 4.33714506,56.5312436 7.15927659,56.5312434 L9.12394286,56.5312435 C10.8116247,56.5312436 12.4362101,57.0640261 13.7800623,58.0257519 C13.7542885,56.5434999 13.7406168,55.0384932 13.7410117,53.5147619 C13.7564931,53.5478753 13.7725746,53.5808474 13.7892513,53.6136782 Z M30.2350613,59.0665988 C31.9791024,59.1388401 33.8056017,59.1458897 35.6854925,59.0802425 C41.9165035,58.8626508 47.7058467,57.9824611 51.8094716,56.6891672 C46.318589,58.7695694 37.831364,59.5397676 30.2350631,59.0665989 Z M14.3467075,71.6077103 C12.5276546,70.0795851 11.5536107,68.9057127 11.5536107,68.3362637 C11.5536107,67.3448075 11.5536107,66.3533513 11.5536107,65.3618951 C11.5536107,63.0595241 9.68717021,61.1930836 7.38479917,61.1930836 C5.08242812,61.1930836 3.21598766,63.0595241 3.21598768,65.3618951 L3.21598771,71.2921154 C3.21598772,73.5994548 4.53909135,75.7023834 6.61912361,76.7010229 C9.97762664,78.3134717 12.8342714,80.0912653 15.189058,82.0344039 C14.8921089,78.9426105 14.5943376,75.4321982 14.3467075,71.6077103 Z" id="Combined-Shape"></path>
                    <ellipse id="Oval-2-Copy-18" cx="78.5902637" cy="42.1281316" rx="42.4442191" ry="42.1281316"></ellipse>
                </g>
                <g id="原本-copy" transform="translate(83.793103, 63.103448)">
                    <g id="Group-3" transform="translate(35.715594, 0.000000)" fill="#F7F7F7">
                        <ellipse id="Oval-2-Copy-10" cx="40.5859017" cy="40.700961" rx="40.5859017" ry="40.700961"></ellipse>
                    </g>
                    <g id="Group-4" transform="translate(49.244227, 9.496891)" fill="#FEFEFE">
                        <ellipse id="Oval-2-Copy-17" cx="28.9512766" cy="29.0333522" rx="28.9512766" ry="29.0333522"></ellipse>
                    </g>
                    <g id="Group-5" transform="translate(69.537178, 18.993782)">
                        <rect id="Rectangle-4" fill="#626261" transform="translate(16.480951, 16.003123) rotate(-1.500000) translate(-16.480951, -16.003123) " x="15.9637176" y="0.264863241" width="1" height="31.4754098"></rect>
                        <rect id="Rectangle-5-Copy" fill="#B24F35" x="5.68202624" y="17.0944036" width="20.8340962" height="4.0700961"></rect>
                        <rect id="Rectangle-5-Copy-2" fill="#666055" x="7.03488963" y="7.32617298" width="18.3989421" height="4.0700961"></rect>
                        <rect id="Rectangle-5-Copy-3" fill="#676766" x="14.0697793" y="3.25607688" width="4.32916285" height="1.3566987"></rect>
                        <rect id="Rectangle-5-Copy-4" fill="#363531" x="12.4463432" y="25.5059356" width="8.92889838" height="1.3566987"></rect>
                        <rect id="Rectangle-5-Copy-6" fill="#DC6242" x="13.7992066" y="26.8626343" width="6.49374428" height="1.08535896"></rect>
                        <rect id="Rectangle-5-Copy-5" fill="#797EA1" x="15.4226427" y="32.5607688" width="2.97629946" height="1"></rect>
                        <rect id="Rectangle-5" fill="#3D518F" x="0" y="10.0395704" width="31.115858" height="8.1401922"></rect>
                    </g>
                    <path d="M5.65109692,56.7100057 C9.10538986,56.7100057 12.387177,58.2195917 14.6349669,60.8424872 L19.6337683,66.6754762 C21.1603905,68.4568573 21.8281413,70.8185607 21.4603066,73.1355829 L19.7143952,84.1332264 C19.4486918,85.8069144 17.8765045,86.9483114 16.2028165,86.682608 C15.3679899,86.5500766 14.6248109,86.0790304 14.1486505,85.3806242 L10.5690539,80.1302758 C10.026756,79.3348628 9.34534453,78.6438609 8.55758795,78.0904999 C7.7519353,77.5245678 7.07584405,77.1012572 6.52931421,76.8205683 C6.21697384,76.6601553 5.71263253,76.4259825 5.01629028,76.1180498 C2.12936961,74.841411 0.263046091,71.9865466 0.251819471,68.8299675 L0.228070016,62.1523543 C0.217417869,59.1572992 2.63675444,56.7206921 5.6318095,56.71004 C5.63823861,56.7100171 5.64466776,56.7100057 5.65109692,56.7100057 Z M6.52931421,60.2374223 C6.48269509,60.2374223 6.43608091,60.2383827 6.38950135,60.2403027 C4.51623194,60.3175192 3.0602434,61.8987004 3.13745991,63.7719698 L3.36487696,69.2890982 C3.45530048,71.4827691 4.73666537,73.4518765 6.70571977,74.4230578 C10.1377334,76.1158058 13.0433744,78.0803076 15.4226427,80.3165631 C17.3728274,82.1495262 18.572871,82.8234113 19.0227884,82.3382322 C19.2703955,82.0712028 19.4912289,81.7805431 19.6821204,81.4704231 C21.2952586,78.8497388 20.4784811,75.4175475 17.8577968,73.8044093 C12.1432946,70.2868999 10.0668632,68.0429863 10.0668632,67.0209158 C10.0668632,65.9389343 10.0668632,64.8569528 10.0668632,63.7749713 C10.0668632,61.821237 8.48304857,60.2374223 6.52931421,60.2374223 Z" id="Combined-Shape-Copy-4" fill="#EFEFEF"></path>
                    <path d="M20.7870818,79.2756602 C20.860231,78.7139648 20.7827101,78.1256235 20.5315143,77.5718359 L20.5315531,77.5718183 C19.6865448,75.7089079 19.1916255,74.7328783 19.0467952,74.6437293 C13.332293,71.1262198 10.0668631,68.0568612 10.0668631,67.0347907 C10.0668631,65.9494087 10.0668631,64.8640266 10.0668631,63.7786446 C10.0668631,61.8249102 8.48304848,60.2410956 6.5293141,60.2410956 C4.57557971,60.2410956 2.99176509,61.8249102 2.99176509,63.7786446 L2.99176511,69.6785669 C2.99176512,71.969908 4.29678182,74.0611885 6.35500674,75.0681414 C10.0628519,76.8821411 13.1142651,78.9146528 15.5092462,81.1656767 C16.4387251,82.0392866 17.8035561,82.265556 18.9652241,81.7386283 C19.937133,81.2977745 20.5766691,80.4244726 20.7594772,79.449544 L19.7143951,86.0326045 C19.4486917,87.7062925 17.8765044,88.8476895 16.2028164,88.5819861 C15.3679898,88.4494547 14.6248109,87.9784086 14.1486504,87.2800023 L10.5690538,82.029654 C10.0267559,81.2342409 9.34534445,80.543239 8.55758787,79.989878 C7.75193522,79.4239459 7.07584397,79.0006353 6.52931413,78.7199464 C6.21954915,78.5608561 5.72093646,78.3292173 5.03347605,78.02503 C2.13798922,76.7438395 0.270573564,73.8754877 0.270573416,70.7092134 L0.270573066,63.2377482 C0.270572925,60.2320031 2.70721062,57.7953652 5.71295569,57.795365 L7.3136213,57.7953651 C9.74202211,57.7953653 12.0389673,58.8983926 13.5572403,60.7936439 L19.8278978,68.6212692 C21.236873,70.3800847 21.8386733,72.6515964 21.4853343,74.8773086 L20.7870819,79.2756598 Z" id="Combined-Shape-Copy-3" fill="#FEFEFE"></path>
                    <path d="M33.8850377,98.3924345 C44.4918553,98.3924345 51.7120152,95.3636487 53.0903799,92.284424 C55.1316797,82.7166806 55.3403672,53.3876681 54.3244305,51.4506595 C52.6506667,60.6275491 16.9236926,59.9195758 13.671493,52.1999637 C12.9629966,72.5475958 14.9879977,89.4743813 14.9879977,92.1760633 C14.9879977,95.5494244 23.27822,98.3924345 33.8850377,98.3924345 Z" id="Oval-2-Copy-8" fill="#FEFEFE" transform="translate(34.219923, 74.921547) rotate(-2.000000) translate(-34.219923, -74.921547) "></path>
                    <g id="Group-2" transform="translate(16.950635, 61.994250)">
                        <path d="M10.7340454,22.5017196 L10.7340454,18.5936591 C14.1532397,19.1570408 16.7176353,19.4387317 18.4272325,19.4387317 C20.1368296,19.4387317 23.145063,19.1570408 27.4519327,18.5936591 L27.4519327,22.7536918 C25.6611363,23.3305702 23.2240392,23.7574472 20.3059427,23.8593494 C15.9729061,24.0106624 12.3226723,23.4307862 10.7340454,22.5017196 Z" id="Combined-Shape-Copy-5" fill="#B36C2D" transform="translate(19.092989, 21.238467) rotate(-2.000000) translate(-19.092989, -21.238467) "></path>
                        <path d="M3.98395461,32.6290269 L3.98395461,30.4864038 C7.00905283,30.7716751 9.27787649,30.9143107 10.7904256,30.9143107 C12.3029747,30.9143107 14.9644794,30.7716751 18.7749397,30.4864038 L18.7749397,32.4749281 C17.1725814,32.8030402 14.9655892,33.0625607 12.3146956,33.1551319 C8.58356591,33.2854258 5.43351536,33.0561535 3.98395461,32.6290269 Z" id="Combined-Shape-Copy-10" fill="#797EA1" transform="translate(11.379447, 31.838986) rotate(6.000000) translate(-11.379447, -31.838986) "></path>
                        <path d="M2.58351229,5.25155428 L2.58351229,4.20506121 C4.17040161,4.34246607 5.3605686,4.4111685 6.15401326,4.4111685 C6.94745792,4.4111685 8.34361535,4.34246607 10.3424855,4.20506121 L10.3424855,5.15201643 C9.50093371,5.31311706 8.34027285,5.44203362 6.94568776,5.49073361 C4.99416304,5.55888235 3.34618006,5.45397045 2.58351229,5.25155428 Z" id="Combined-Shape-Copy-6" fill="#B36C2D" transform="translate(6.462999, 4.858270) rotate(8.000000) translate(-6.462999, -4.858270) "></path>
                        <path d="M4.15335691,3.63719825 L4.15335691,3.11901834 C4.9391186,3.18705552 5.52843986,3.22107411 5.9213207,3.22107411 C6.31420155,3.22107411 7.00552072,3.18705552 7.99527823,3.11901834 L7.99527823,3.58791124 C7.57857671,3.66768158 7.00386566,3.73151571 6.31332504,3.75562992 C5.34701104,3.78937435 4.53099832,3.73742633 4.15335691,3.63719825 Z" id="Combined-Shape-Copy-7" fill="#294180" transform="translate(6.074318, 3.636260) rotate(8.000000) translate(-6.074318, -3.636260) "></path>
                        <path d="M2.5027169,14.0050771 L2.5027169,13.436257 C4.20013941,13.5315091 5.44964376,13.5791352 6.25122994,13.5791352 C7.05281613,13.5791352 8.41617444,13.5315091 10.3413049,13.436257 L10.3413049,13.8503106 C9.49893414,13.988047 8.3282234,14.1217382 6.90498214,14.1714389 C4.96317287,14.2392484 3.29746186,14.1289247 2.5027169,14.0050771 Z" id="Combined-Shape-Copy-8" fill="#797EA1" transform="translate(6.422011, 13.953498) rotate(10.000000) translate(-6.422011, -13.953498) "></path>
                        <path d="M4.70833582,17.9888236 L4.70833582,17.5167373 C5.42371004,17.6119895 5.95031033,17.6596155 6.28813671,17.6596155 C6.62596308,17.6596155 7.20054683,17.6119895 8.01188795,17.5167373 L8.01188795,18.0060001 C7.66052559,18.1240525 7.17597957,18.2304519 6.58701878,18.2510188 C5.75475078,18.2800823 5.03931288,18.1308031 4.70833582,17.9888236 Z" id="Combined-Shape-Copy-9" fill="#797EA1" transform="translate(6.360112, 18.033979) rotate(10.000000) translate(-6.360112, -18.033979) "></path>
                        <rect id="Rectangle-4" fill="#626261" transform="translate(6.463102, 16.960517) rotate(-1.500000) translate(-6.463102, -16.960517) " x="5.9458684" y="0.136794919" width="1" height="33.6463329"></rect>
                        <path d="M1.00810474,28.7641749 L1.00810474,20.2170055 C7.26133997,21.4832576 11.9512664,22.1163837 15.077884,22.1163837 C18.2045016,22.1163837 23.7061461,21.4832576 31.5828174,20.2170055 L31.5828174,29.723281 C28.3285246,30.9655691 23.9273044,31.8657373 18.6663898,32.0494525 C10.6238833,32.330303 3.85694805,30.9290958 1.00810474,28.7641749 Z" id="Combined-Shape" fill="#3D518F" transform="translate(16.295461, 26.151091) rotate(-1.000000) translate(-16.295461, -26.151091) "></path>
                    </g>
                    <ellipse id="Oval-2-Copy-7" fill="#F7F7F7" transform="translate(33.345173, 52.130118) rotate(-2.000000) translate(-33.345173, -52.130118) " cx="33.3451729" cy="52.130118" rx="20.4282372" ry="6.10514415"></ellipse>
                </g>
                <g id="Group-6-Copy" transform="translate(25.862069, 38.275862)">
                    <ellipse id="Oval" fill="#000000" fill-rule="nonzero" opacity="0.1" cx="17.1279172" cy="91.8585622" rx="12.0133482" ry="4.34833431"></ellipse>
                    <path d="M17.0061587,91.9319404 C17.0061587,91.9319404 23.8591064,68.2416715 15.7220652,50.8075687 C12.3049351,43.4887785 11.1836893,35.2758621 12.7507638,27.3347165 C13.5012708,23.5651234 14.5896974,19.873518 16.0023767,16.3062537" id="Shape" stroke="#3D518F" stroke-width="2"></path>
                    <path d="M10.9877615,5.25604909 C10.9877615,8.15856224 16.1508316,16.5780245 16.1508316,16.5780245 C16.1508316,16.5780245 21.3139017,8.15312683 21.3139017,5.25604909 C21.3139017,2.35321334 19.0023164,0 16.1508316,0 C13.2993467,0 10.9877615,2.35321334 10.9877615,5.25604909 Z" id="Shape" fill="#E3937E" fill-rule="nonzero"></path>
                    <path d="M2.53947856,21.2647687 C4.09053529,23.7107068 12.9190114,27.9122848 12.9190114,27.9122848 C12.9190114,27.9122848 12.7588334,17.9872118 11.2077767,15.5521445 C10.2277828,13.9262977 8.459425,12.968582 6.58733843,13.0497855 C4.71525185,13.1309891 3.03332817,14.238364 2.19273889,15.9431804 C1.35214961,17.6479968 1.48485559,19.6826221 2.53947856,21.2593333 L2.53947856,21.2647687 Z" id="Shape" fill="#E3937E" fill-rule="nonzero"></path>
                    <path d="M2.88176519,48.7954555 C5.4205861,50.1026735 15.1380499,49.2112649 15.1380499,49.2112649 C15.1380499,49.2112649 10.0657474,40.7265776 7.53226574,39.4275127 C4.98598117,38.120186 1.88075967,39.1617323 0.596559404,41.7538716 C-0.687640864,44.3460109 0.335480615,47.5071527 2.88176519,48.8144794 L2.88176519,48.7954555 Z" id="Shape" fill="#E3937E" fill-rule="nonzero"></path>
                    <path d="M7.74193548,69.5439098 C10.0351502,71.269655 19.7552836,72.0496374 19.7552836,72.0496374 C19.7552836,72.0496374 16.1779755,62.809427 13.8820912,61.091835 C11.589403,59.3657434 8.35629133,59.8585311 6.66073415,62.1925071 C4.96517696,64.5264831 5.44924729,67.8178182 7.74193548,69.5439098 Z" id="Shape" fill="#E3937E" fill-rule="nonzero"></path>
                    <path d="M23.631143,28.5996168 C21.5862042,30.6215922 12.0556147,32.7169458 12.0556147,32.7169458 C12.0556147,32.7169458 14.3888738,23.0799499 16.4338127,21.0579745 C17.7571657,19.7472001 19.6669138,19.2547092 21.4436732,19.7660182 C23.2204327,20.2773272 24.5942715,21.7147561 25.0476778,23.5368394 C25.5010841,25.3589227 24.9651747,27.2888425 23.6418216,28.5996168 L23.631143,28.5996168 Z" id="Shape" fill="#E3937E" fill-rule="nonzero"></path>
                    <path d="M29.1172387,52.8828897 C26.5704089,54.1901077 16.8609539,53.2878283 16.8609539,53.2878283 C16.8609539,53.2878283 21.9332565,44.803141 24.4667381,43.5040762 C27.0130227,42.1967494 30.1182442,43.2382957 31.4024445,45.830435 C32.6866448,48.4225743 31.6635233,51.5837161 29.1172387,52.8910428 L29.1172387,52.8828897 Z" id="Shape" fill="#E3937E" fill-rule="nonzero"></path>
                    <path d="M31.0100084,77.1534948 C28.7167938,78.87924 18.9966603,79.6592225 18.9966603,79.6592225 C18.9966603,79.6592225 22.5739684,70.4190121 24.8698527,68.70142 C27.1625409,66.9753284 30.3956526,67.4681161 32.0912098,69.8020921 C33.786767,72.1360682 33.3026966,75.4274033 31.0100084,77.1534948 Z" id="Shape" fill="#E3937E" fill-rule="nonzero"></path>
                </g>
            </g>
        </g>
    </g>
</svg>