<?xml version="1.0" encoding="UTF-8"?>
<svg width="300px" height="236px" viewBox="0 0 300 236" version="1.1" xmlns="http://www.w3.org/2000/svg" xmlns:xlink="http://www.w3.org/1999/xlink">
    <!-- Generator: Sketch 50.2 (55047) - http://www.bohemiancoding.com/sketch -->
    <title>Group</title>
    <desc>Created with Sketch.</desc>
    <defs>
        <linearGradient x1="20.1536726%" y1="21.9661933%" x2="72.4422412%" y2="71.8824687%" id="linearGradient-1">
            <stop stop-color="#FFFFFF" stop-opacity="0" offset="0%"></stop>
            <stop stop-color="#C9C9C9" offset="100%"></stop>
        </linearGradient>
    </defs>
    <g id="2" stroke="none" stroke-width="1" fill="none" fill-rule="evenodd">
        <g id="Artboard-2-Copy-2" transform="translate(-50.000000, -70.000000)">
            <g id="Group" transform="translate(50.000000, 70.000000)">
                <g id="Group-2-Copy">
                    <ellipse id="Oval" fill="#DC5868" fill-rule="nonzero" cx="157.739981" cy="210.107247" rx="99.9074029" ry="25.1868703"></ellipse>
                    <path d="M147.031851,207.072083 C167.900314,195.518622 191.738383,191.829964 215.033865,196.78609 C248.04717,203.805915 289.533922,201.053233 297.559004,146.896587 C311.28287,54.4006497 253.768696,29.98726 253.768696,29.98726 C253.768696,29.98726 215.521218,26.7828401 192.904781,14.5826451 C160.778459,-2.74592165 124.058021,-4.95911632 91.7692484,9.70776701 C71.1217184,19.0772828 54.1195903,32.1322064 51.2117163,50.0425086 C43.0891632,100.149756 56.4296444,127.754566 31.4739123,144.111407 C6.51818025,160.468248 27.8447556,205.375625 46.9847397,203.822164 C66.1247238,202.268703 109.349702,185.213129 126.195877,204.966136 C132.183823,211.963211 139.754043,211.101982 147.031851,207.072083 Z" id="Shape" fill="#DC5868" fill-rule="nonzero" opacity="0.1" transform="translate(159.909620, 105.083752) scale(-1, 1) translate(-159.909620, -105.083752) "></path>
                    <ellipse id="Oval" fill="#000000" fill-rule="nonzero" opacity="0.1" cx="281.040337" cy="174.845629" rx="14.6205955" ry="5.19987"></ellipse>
                    <path d="M280.612845,175.61586 C280.612845,175.61586 284.51167,162.343191 279.878566,152.573936 C277.905421,148.488838 277.310308,143.873727 278.182577,139.421514 C278.613241,137.310663 279.23641,135.243736 280.044266,133.246669" id="Shape" stroke="#535461" stroke-width="2"></path>
                    <path d="M277.14476,127.092948 C277.14476,128.717907 280.088373,133.436789 280.088373,133.436789 C280.088373,133.436789 283.031987,128.721157 283.031987,127.092948 C283.031987,125.465888 281.713359,124.146896 280.086749,124.146896 C278.460139,124.146896 277.141511,125.465888 277.141511,127.092948 L277.14476,127.092948 Z" id="Shape" fill="#FF96A3" fill-rule="nonzero"></path>
                    <path d="M272.088152,136.167215 C272.971886,137.53218 278.007869,139.891621 278.007869,139.891621 C278.007869,139.891621 277.916896,134.331011 277.033163,132.966045 C276.149428,131.601038 274.326769,131.211088 272.962139,132.095066 C271.597509,132.979045 271.207667,134.802208 272.091401,136.167215 L272.088152,136.167215 Z" id="Shape" fill="#FF96A3" fill-rule="nonzero"></path>
                    <path d="M272.261692,151.495164 C273.714005,152.226395 279.250337,151.722658 279.250337,151.722658 C279.250337,151.722658 276.365206,146.968027 274.912893,146.236795 C273.973836,145.763073 272.853453,145.826455 271.973781,146.403066 C271.09411,146.979677 270.588794,147.981917 270.648181,149.032251 C270.707567,150.082584 271.322634,151.021441 272.261692,151.495164 Z" id="Shape" fill="#FF96A3" fill-rule="nonzero"></path>
                    <path d="M275.085636,162.940285 C276.385244,163.91526 281.934572,164.34425 281.934572,164.34425 C281.934572,164.34425 279.894187,159.173629 278.588081,158.198653 C277.742464,157.572829 276.627302,157.445799 275.662663,157.865414 C274.698025,158.285029 274.030463,159.18754 273.911441,160.23298 C273.792419,161.278419 274.240019,162.30796 275.085636,162.933785 L275.085636,162.940285 Z" id="Shape" fill="#FF96A3" fill-rule="nonzero"></path>
                    <path d="M284.393327,139.929322 C283.226928,141.063544 277.791315,142.236764 277.791315,142.236764 C277.791315,142.236764 279.123414,136.838649 280.289813,135.704428 C281.456163,134.57096 283.320279,134.597879 284.453433,135.764551 C285.586587,136.931223 285.559677,138.795855 284.393327,139.929322 Z" id="Shape" fill="#FF96A3" fill-rule="nonzero"></path>
                    <path d="M287.379177,153.770738 C285.926865,154.50197 280.390532,153.998233 280.390532,153.998233 C280.390532,153.998233 283.275663,149.243601 284.727976,148.51237 C286.179633,147.780059 287.949926,148.363529 288.682035,149.815587 C289.414144,151.267646 288.830834,153.038427 287.379177,153.770738 Z" id="Shape" fill="#FF96A3" fill-rule="nonzero"></path>
                    <path d="M288.539078,167.483839 C287.239469,168.458814 281.690141,168.887803 281.690141,168.887803 C281.690141,168.887803 283.730526,163.713933 285.036633,162.748707 C286.343842,161.781266 288.187594,162.056996 289.154767,163.364567 C290.12194,164.672137 289.846287,166.516398 288.539078,167.483839 Z" id="Shape" fill="#FF96A3" fill-rule="nonzero"></path>
                    <ellipse id="Oval" fill="#000000" fill-rule="nonzero" opacity="0.1" cx="20.7937359" cy="203.769906" rx="14.6205955" ry="5.19987"></ellipse>
                    <path d="M20.9704543,203.857654 C20.9704543,203.857654 29.3106918,175.528112 19.4076751,154.679883 C15.2489279,145.927852 13.884339,136.106597 15.7915144,126.610335 C16.7049034,122.102541 18.0295503,117.688007 19.7488223,113.422164" id="Shape" stroke="#535461" stroke-width="2"></path>
                    <path d="M13.3209871,100.207995 C13.3209871,103.678908 19.6045941,113.747156 19.6045941,113.747156 C19.6045941,113.747156 25.8882012,103.672408 25.8882012,100.207995 C25.8882012,96.7366958 23.0749345,93.9226519 19.6045941,93.9226519 C16.1342538,93.9226519 13.3209871,96.7366958 13.3209871,100.207995 Z" id="Shape" fill="#F5A623" fill-rule="nonzero"></path>
                    <path d="M3.03917999,119.351707 C4.92686133,122.276634 15.6713745,127.301008 15.6713745,127.301008 C15.6713745,127.301008 15.4764333,115.432305 13.5887519,112.520378 C12.3960708,110.576141 10.2439277,109.430875 7.96554366,109.527981 C5.68715963,109.625087 3.64020939,110.949319 2.61718769,112.98799 C1.59416598,115.026662 1.75567305,117.459728 3.03917999,119.345207 L3.03917999,119.351707 Z" id="Shape" fill="#F5A623" fill-rule="nonzero"></path>
                    <path d="M3.45575282,152.273737 C6.54557201,153.836948 18.3720093,152.770975 18.3720093,152.770975 C18.3720093,152.770975 12.198869,142.624728 9.1155478,141.071267 C6.01664512,139.507926 2.23749987,140.753439 0.674590641,143.853198 C-0.888318588,146.952956 0.356850131,150.733145 3.45575282,152.296486 L3.45575282,152.273737 Z" id="Shape" fill="#F5A623" fill-rule="nonzero"></path>
                    <path d="M9.370722,177.085368 C12.1616312,179.149066 23.9913175,180.081793 23.9913175,180.081793 C23.9913175,180.081793 19.6376291,169.032069 16.8434708,166.97812 C14.0532023,164.914008 10.118411,165.503298 8.0548684,168.294338 C5.99132579,171.085377 6.58045351,175.021255 9.370722,177.085368 Z" id="Shape" fill="#F5A623" fill-rule="nonzero"></path>
                    <path d="M29.0332537,128.122941 C26.5445035,130.54088 14.9454977,133.046568 14.9454977,133.046568 C14.9454977,133.046568 17.7851422,121.522356 20.2738925,119.104416 C21.8844518,117.536953 24.208671,116.948017 26.3710391,117.559456 C28.5334072,118.170895 30.2054091,119.889816 30.7572179,122.068718 C31.3090266,124.247621 30.6568092,126.555477 29.0462498,128.122941 L29.0332537,128.122941 Z" id="Shape" fill="#F5A623" fill-rule="nonzero"></path>
                    <path d="M35.3850902,157.161615 C32.285524,158.724826 20.4688338,157.645853 20.4688338,157.645853 C20.4688338,157.645853 26.6419741,147.499606 29.7252953,145.946145 C32.8241979,144.382804 36.6033432,145.628317 38.1662524,148.728076 C39.7291616,151.827834 38.4839929,155.608024 35.3850902,157.171365 L35.3850902,157.161615 Z" id="Shape" fill="#F5A623" fill-rule="nonzero"></path>
                    <path d="M38.0135484,186.18514 C35.2226392,188.248839 23.3929529,189.181565 23.3929529,189.181565 C23.3929529,189.181565 27.7466413,178.131842 30.5407996,176.077893 C33.3310681,174.01378 37.2658594,174.603071 39.329402,177.39411 C41.3929446,180.185149 40.8038169,184.121028 38.0135484,186.18514 Z" id="Shape" fill="#F5A623" fill-rule="nonzero"></path>
                </g>
                <circle id="Oval-3-Copy-8" stroke="#FFFFFF" stroke-width="3" opacity="0.25" cx="121.876201" cy="141.868512" r="62.6303345"></circle>
                <path d="M221.140089,217.423035 C217.638848,222.835343 204.813683,226.274727 189.950962,226.015297 C174.435742,225.744478 161.354921,221.544224 158.708202,215.625321 C154.063028,208.002334 149.388652,193.128662 147.804371,178.850316 C147.758804,178.439638 147.717572,178.018646 147.680673,177.587744 L147.541265,175.959764 L148.29998,175.959764 C151.315483,170.092416 169.139091,166.544074 190.875995,166.923493 C210.731163,167.270067 227.539667,170.884193 232.145548,175.959763 L233.129486,175.959763 L233.148522,177.093961 C238.23559,176.693435 242.622135,176.991127 244.899475,178.244672 C250.051636,181.080641 252.097519,185.655018 251.204183,190.718646 C250.470084,194.879684 247.724089,198.941581 244.589496,200.711399 C243.120959,201.540547 241.989076,202.126934 239.482713,203.384813 C234.580146,205.845285 232.332738,207.11419 229.173835,209.404171 C228.621847,209.804323 228.178654,210.300369 227.771149,210.938092 C227.589127,211.222947 227.4209,211.523093 227.212163,211.926174 C227.150885,212.044504 226.92553,212.486333 226.949776,212.43898 C226.840808,212.651799 226.759346,212.806977 226.676669,212.957094 C226.543247,213.199349 226.417927,213.406668 226.285988,213.597546 C224.502808,216.177311 224.346325,216.386267 223.664337,216.896042 C223.321595,217.152235 222.956337,217.331077 222.552905,217.4393 C222.047191,217.596018 221.575468,217.578029 221.140089,217.423035 Z M228.649494,200.742776 C229.575716,200.228627 230.637221,199.700786 231.920077,199.097702 C237.796556,196.335111 239.761022,195.18763 242.697286,192.257025 C244.380995,189.785887 244.032608,186.189635 241.107114,185.210815 C239.053523,184.523719 235.837172,186.035217 231.664687,189.058708 C230.841228,193.091255 229.816168,197.037562 228.649494,200.742776 Z" id="Combined-Shape-Copy-9" stroke="#FFFFFF" stroke-width="3" opacity="0.25"></path>
                <circle id="Oval-3-Copy-7" stroke="#E2E2E2" stroke-width="2" fill="#FBFBFB" cx="121.876201" cy="141.868512" r="61.1303345"></circle>
                <circle id="Oval-3-Copy-6" fill="url(#linearGradient-1)" opacity="0.190959821" cx="123.414072" cy="147.251057" r="36.5244137"></circle>
                <rect id="Rectangle-Copy-47" fill="#FF96A3" transform="translate(114.186851, 135.332564) rotate(-1.000000) translate(-114.186851, -135.332564) " x="113.802384" y="101.499423" width="1" height="67.6662822"></rect>
                <rect id="Path-Copy" fill="#2B2D2A" x="111.495579" y="113.802384" width="1" height="46.1361015"></rect>
                <rect id="Rectangle-Copy-4" fill="#FF8F8F" transform="translate(111.495579, 137.639369) rotate(-1.000000) translate(-111.495579, -137.639369) " x="110.726644" y="117.647059" width="1.53787005" height="39.9846213"></rect>
                <rect id="Rectangle-Copy-46" fill="#E19869" transform="translate(121.491734, 137.639369) rotate(-1.000000) translate(-121.491734, -137.639369) " x="120.722799" y="126.874279" width="1.53787005" height="21.5301807"></rect>
                <rect id="Rectangle-Copy-45" fill="#FF8F8F" x="135.332564" y="92.272203" width="1.53787005" height="47.6739715"></rect>
                <rect id="Rectangle-Copy-44" fill="#FF0000" x="138.408304" y="127.643214" width="1" height="16.9165705"></rect>
                <rect id="Rectangle-Copy-43" fill="#2B2D2A" x="133.794694" y="161.476355" width="1" height="8.45828527"></rect>
                <rect id="Rectangle-Copy-42" fill="#FF6D6D" x="135.332564" y="145.32872" width="1.53787005" height="33.8331411"></rect>
                <rect id="Rectangle-Copy-41" fill="#CCA1A1" transform="translate(137.254902, 129.950019) rotate(-1.000000) translate(-137.254902, -129.950019) " x="136.870434" y="123.029604" width="1" height="13.8408304"></rect>
                <rect id="Rectangle-Copy-40" fill="#FF0000" transform="translate(130.334487, 141.868512) rotate(-1.000000) translate(-130.334487, -141.868512) " x="128.412149" y="132.256824" width="3.84467512" height="19.2233756"></rect>
                <rect id="Rectangle-Copy-39" fill="#F5A623" transform="translate(131.103422, 152.633602) rotate(-1.000000) translate(-131.103422, -152.633602) " x="129.181084" y="119.184929" width="3.84467512" height="66.8973472"></rect>
                <rect id="Rectangle-Copy-38" fill="#FF0000" transform="translate(120.722799, 139.177240) rotate(-1.000000) translate(-120.722799, -139.177240) " x="119.953864" y="135.332564" width="1.53787005" height="7.68935025"></rect>
                <rect id="Rectangle-Copy-37" fill="#FF0000" transform="translate(107.266436, 138.792772) rotate(-1.000000) translate(-107.266436, -138.792772) " x="106.881968" y="136.870434" width="1" height="3.84467512"></rect>
                <rect id="Rectangle-Copy-36" fill="#E19869" transform="translate(112.781159, 96.121282) rotate(-1.000000) translate(-112.781159, -96.121282) " x="112.264552" y="93.8144768" width="1.03321337" height="4.61361015"></rect>
                <rect id="Rectangle-Copy-35" fill="#DC5868" transform="translate(133.025759, 128.412149) rotate(-1.000000) translate(-133.025759, -128.412149) " x="131.487889" y="102.268358" width="3.0757401" height="52.2875817"></rect>
                <rect id="Rectangle-Copy-34" fill="#FF0000" x="129.950019" y="106.881968" width="1" height="9.99615532"></rect>
                <rect id="Rectangle-Copy-33" fill="#FF8F8F" transform="translate(111.880046, 98.423683) rotate(-1.000000) translate(-111.880046, -98.423683) " x="111.495579" y="96.1168781" width="1" height="4.61361015"></rect>
                <rect id="Rectangle-Copy-32" fill="#FF0000" transform="translate(111.880046, 110.342176) rotate(-1.000000) translate(-111.880046, -110.342176) " x="111.495579" y="109.188774" width="1" height="2.30680507"></rect>
                <rect id="Rectangle-Copy-31" fill="#FF6D6D" transform="translate(111.880046, 90.349865) rotate(3.000000) translate(-111.880046, -90.349865) " x="111.495579" y="89.1964629" width="1" height="2.30680507"></rect>
                <rect id="Rectangle-Copy-30" fill="#FF8F8F" x="109.957709" y="104.575163" width="1" height="2.30680507"></rect>
                <rect id="Rectangle-Copy-29" fill="#FF0000" x="110.726644" y="105.344098" width="1" height="2.30680507"></rect>
                <rect id="Rectangle-Copy-28" fill="#FF6D6D" transform="translate(111.111111, 168.012303) rotate(-1.000000) translate(-111.111111, -168.012303) " x="110.726644" y="166.089965" width="1" height="3.84467512"></rect>
                <rect id="Rectangle-Copy-27" fill="#E19869" transform="translate(116.493656, 173.010381) rotate(-1.000000) translate(-116.493656, -173.010381) " x="116.109189" y="169.934641" width="1" height="6.1514802"></rect>
                <rect id="Rectangle-Copy-26" fill="#FF6D6D" x="115.340254" y="173.779316" width="1" height="3.84467512"></rect>
                <ellipse id="Combined-Shape-Copy-8" stroke="#E2E2E2" stroke-width="2" opacity="0.200000003" cx="189.542484" cy="214.532872" rx="30.3769775" ry="10.7532054"></ellipse>
                <path d="M241.540303,183.756346 C246.427338,185.386422 245.449931,190.928682 243.820919,193.210789 C236.97907,200.05711 230.137221,200.05711 224.924384,205.273354 C221.075429,208.70845 218.707233,206.172165 218.408337,207.555461 C218.109442,208.938758 220.037349,216.683889 221.992163,216.031859 C222.865568,215.813365 223.353612,215.037169 224.924384,212.771706 C225.697365,211.656865 226.248286,209.60527 228.182407,208.207492 C234.046849,203.969293 238.608082,202.339217 243.820919,199.405079 C249.033757,196.470942 254.246594,185.060407 244.146722,179.518147 C240.122286,177.309756 227.530803,178.866116 225.575989,179.844162 C222.602561,181.331848 228.50821,188.765225 228.50821,189.298605 C228.50821,189.831986 236.653268,182.126269 241.540303,183.756346 Z" id="Path-2-Copy-2" stroke="#E2E2E2" stroke-width="2" fill="#FCFCFC"></path>
                <path d="M184.676304,177.623991 L196.841215,177.623991 L232.183023,177.623991 L232.218889,179.740003 C230.161453,196.886807 224.098387,212.008515 220.242284,216.788012 C220.227379,216.806486 220.212222,216.82456 220.196818,216.842234 C216.884505,221.486073 204.701209,224.767986 190.240483,224.515573 C177.13946,224.286893 166.007823,221.224292 161.689241,217.113315 C161.562878,217.023334 161.447788,216.914518 161.344711,216.786429 C161.310746,216.744222 161.276609,216.701208 161.242304,216.657393 C160.806021,216.178492 160.46126,215.68672 160.215279,215.184754 C156.331926,209.052913 151.062238,194.758118 149.29141,178.857082 C149.246675,178.455381 149.206366,178.044137 149.170422,177.623991 L184.676304,177.623991 Z" id="Combined-Shape-Copy-7" fill="#FBFBFB"></path>
                <path d="M152.101273,194.257282 C152.694439,195.449611 153.500546,196.374451 155.333825,197.883262 C158.297457,200.322368 166.667936,203.946112 176.855056,204.986695 L176.855056,206.074587 C166.480228,205.01483 158.495028,201.745175 155.333825,199.143466 C154.258675,198.258605 153.435389,197.489999 152.772232,196.730862 C152.54223,195.921111 152.318202,195.096099 152.101273,194.257282 Z" id="Combined-Shape-Copy-6" fill="#CCA1A1"></path>
                <path d="M149.934962,186.073467 C154.906473,192.020389 166.623403,195.132544 170.674418,195.804397 C177.22156,196.890228 182.357513,197.541727 186.082276,197.758894 L186.082276,199.923106 C168.543799,198.277536 156.595924,194.208396 150.238653,187.715687 C150.133998,187.17184 150.032692,186.624333 149.934963,186.073471 Z" id="Combined-Shape-Copy-5" fill="#F5A623"></path>
                <ellipse id="Oval-2-Copy-16" stroke="#E2E2E2" stroke-width="2" fill="#FFFFFF" transform="translate(190.695886, 178.392926) rotate(1.000000) translate(-190.695886, -178.392926) " cx="190.695886" cy="178.392926" rx="42.5224913" ry="10.9961553"></ellipse>
                <path d="M210.688197,199.923106 L210.489032,200.529797 C210.173674,200.587653 209.40477,200.792673 209.184872,200.83328 C206.767895,201.279604 205.009221,201.460977 202.229912,201.460977 L202.229912,200.843714 C206.517183,200.692042 210.37066,199.981363 210.688197,199.923106 Z" id="Path-4-Copy-12" fill="#FF0000" fill-rule="nonzero"></path>
                <path d="M222.991157,198.385236 L222.507538,199.023257 C216.82822,200.569206 212.563943,201.563636 208.406195,202.006132 C204.258941,202.44751 199.132486,202.778348 193.026016,202.998847 L193.002691,202.338528 C199.095193,202.118533 204.207161,201.788631 208.337781,201.349022 C212.457907,200.910531 217.342858,199.922741 222.991157,198.385236 Z" id="Path-4-Copy-11" fill="#E19869" fill-rule="nonzero"></path>
                <path d="M216.070742,212.226067 L215.422603,213.890674 C214.117455,214.377582 212.715668,214.776059 211.228739,215.093752 C207.185025,215.957721 203.301039,216.15483 198.817023,216.041668 C198.648591,216.037417 198.156235,216.024074 198.090402,216.022388 C197.863068,216.016565 197.719885,216.01392 197.616301,216.01392 L197.616301,214.535122 C208.31059,213.890674 212.489991,213.113346 216.070742,212.226067 Z" id="Path-4-Copy-10" fill="#555654" fill-rule="nonzero"></path>
                <path d="M220.684352,211.457132 L220.02987,212.910164 C214.568151,215.248983 201.848422,217.809755 183.006536,216.470298 L183.102617,214.884883 C201.332051,216.470298 215.400714,213.719693 220.684352,211.457132 Z" id="Path-4-Copy-9" fill="#FF8F8F" fill-rule="nonzero"></path>
                <polygon id="Path-4-Copy-8" fill="#F5A623" fill-rule="nonzero" points="199.923106 218.377547 199.923106 219.915417 191.464821 219.915417 191.464821 218.377547"></polygon>
                <polygon id="Path-4-Copy-7" fill="#2B2D2A" fill-rule="nonzero" points="196.847366 220.684352 196.847366 221.453287 194.540561 221.453287 194.540561 220.684352"></polygon>
            </g>
        </g>
    </g>
</svg>